<svg width="650" height="80" viewBox="0 0 650 80" fill="none" xmlns="http://www.w3.org/2000/svg">
<path d="M31.9646 28.9396V37.1722H52.5506C51.9204 41.7907 50.31 45.1708 47.8592 47.5468C44.8482 50.4249 40.1569 53.5708 31.9646 53.5708C19.2907 53.5708 9.38279 43.7987 9.38279 31.6839C9.38279 19.5691 19.2907 9.797 31.9646 9.797C38.7916 9.797 43.798 12.3739 47.4742 15.687L53.5308 9.89742C48.4195 5.14522 41.5574 1.53088 31.9646 1.53088C14.5993 1.53088 0 15.0512 0 31.6505C0 48.2497 14.5993 61.77 31.9646 61.77C41.3473 61.77 48.4195 58.8249 53.9509 53.3363C59.6228 47.9148 61.4081 40.2511 61.4081 34.0933C61.4081 32.186 61.2682 30.4122 60.9531 28.9396H31.9646Z" fill="#4285F4"/>
<path d="M87.1409 22.2457C75.9026 22.2457 66.73 30.4115 66.73 41.6896C66.73 52.8673 75.9026 61.1335 87.1409 61.1335C98.3792 61.1335 107.552 52.9007 107.552 41.6896C107.552 30.4115 98.3792 22.2457 87.1409 22.2457ZM87.1409 53.4695C80.979 53.4695 75.6574 48.6171 75.6574 41.6896C75.6574 34.6951 80.979 29.9095 87.1409 29.9095C93.3027 29.9095 98.6243 34.6951 98.6243 41.6896C98.6243 48.6171 93.3027 53.4695 87.1409 53.4695Z" fill="#EA4335"/>
<path d="M187.201 26.5963H186.886C184.89 24.3206 181.039 22.2457 176.173 22.2457C166.019 22.2457 157.162 30.7125 157.162 41.6896C157.162 52.5994 166.019 61.1335 176.173 61.1335C181.039 61.1335 184.89 59.0584 186.886 56.7158H187.201V59.4264C187.201 66.856 183.035 70.8386 176.347 70.8386C170.886 70.8386 167.49 67.0905 166.089 63.9111L158.317 66.99C160.558 72.1437 166.474 78.4689 176.347 78.4689C186.816 78.4689 195.673 72.5787 195.673 58.2218V23.2497H187.201V26.5963ZM176.943 53.4695C170.781 53.4695 166.089 48.4496 166.089 41.6896C166.089 34.8289 170.781 29.9095 176.943 29.9095C183.035 29.9095 187.796 34.9293 187.796 41.7564C187.831 48.55 183.035 53.4695 176.943 53.4695Z" fill="#4285F4"/>
<path d="M132.655 22.2457C121.416 22.2457 112.243 30.4115 112.243 41.6896C112.243 52.8673 121.416 61.1335 132.655 61.1335C143.893 61.1335 153.066 52.9007 153.066 41.6896C153.066 30.4115 143.893 22.2457 132.655 22.2457ZM132.655 53.4695C126.493 53.4695 121.171 48.6171 121.171 41.6896C121.171 34.6951 126.493 29.9095 132.655 29.9095C138.816 29.9095 144.138 34.6951 144.138 41.6896C144.138 48.6171 138.816 53.4695 132.655 53.4695Z" fill="#FBBC05"/>
<path d="M202.675 2.33398H211.464V61.1341H202.675V2.33398Z" fill="#34A853"/>
<path d="M238.596 53.4695C234.044 53.4695 230.824 51.4951 228.723 47.5796L255.926 36.8369L255.016 34.6281C253.335 30.2775 248.154 22.2457 237.615 22.2457C227.148 22.2457 218.43 30.1103 218.43 41.6896C218.43 52.5994 227.042 61.1335 238.596 61.1335C247.908 61.1335 253.3 55.6783 255.541 52.5327L248.609 48.115C246.298 51.3277 243.147 53.4695 238.596 53.4695ZM237.965 29.5412C241.572 29.5412 244.653 31.315 245.668 33.8251L227.287 41.0871C227.287 32.9213 233.344 29.5412 237.965 29.5412Z" fill="#EA4335"/>
<path d="M284.845 2.28235H321.371V9.04575H292.255V29.5029H318.547V36.1829H292.255V62.0676H284.845V2.28235Z" fill="#5F6368"/>
<path d="M333.765 11.6342C332.296 11.6342 331.031 11.1333 329.97 10.1313C328.912 9.12928 328.384 7.93245 328.384 6.54081C328.384 5.14917 328.912 3.98017 329.97 3.03386C331.031 2.03188 332.296 1.53088 333.765 1.53088C335.237 1.53088 336.499 2.03188 337.56 3.03386C338.618 3.98017 339.145 5.14917 339.145 6.54081C339.145 7.93245 338.618 9.12928 337.56 10.1313C336.56 11.1333 335.295 11.6342 333.765 11.6342ZM330.06 19.4831H337.469V62.0676H330.06V19.4831Z" fill="#5F6368"/>
<path d="M349.257 19.4831H356.401V25.7455H356.757C357.99 23.6302 359.96 21.8489 362.668 20.4015C365.373 18.8986 368.255 18.1471 371.313 18.1471C376.723 18.1471 380.842 19.6501 383.663 22.656C386.546 25.6063 387.989 29.6422 387.989 34.7633V62.0676H380.489V35.8488C380.489 31.8965 379.489 29.0298 377.49 27.2484C375.49 25.4672 372.753 24.5765 369.284 24.5765C366.871 24.5765 364.697 25.2167 362.755 26.497C360.872 27.7774 359.403 29.475 358.342 31.5903C357.284 33.6499 356.757 35.8209 356.757 38.1034V62.0676H349.257V19.4831Z" fill="#5F6368"/>
<path d="M412.66 63.4036C409.366 63.4036 406.428 62.7911 403.84 61.5666C401.251 60.3418 399.252 58.672 397.838 56.5567C396.427 54.3856 395.722 51.9363 395.722 49.2085C395.722 44.6998 397.514 41.1928 401.102 38.6877C404.691 36.1271 409.22 34.8469 414.691 34.8469C417.396 34.8469 419.894 35.1252 422.188 35.6819C424.543 36.2386 426.336 36.8786 427.572 37.6022V35.0138C427.572 31.8408 426.394 29.3081 424.042 27.4155C421.69 25.4672 418.72 24.493 415.131 24.493C412.601 24.493 410.278 25.0218 408.162 26.0795C406.043 27.0815 404.367 28.5009 403.134 30.3379L397.485 26.33C399.252 23.7693 401.662 21.7654 404.72 20.3181C407.839 18.8707 411.278 18.1471 415.044 18.1471C421.159 18.1471 425.954 19.6779 429.423 22.7395C432.953 25.7455 434.719 29.8648 434.719 35.0974V62.0676H427.572V55.9721H427.219C425.925 58.0317 423.984 59.7851 421.395 61.2325C418.807 62.6797 415.895 63.4036 412.66 63.4036ZM413.368 57.1409C415.895 57.1409 418.247 56.5288 420.425 55.304C422.602 54.0794 424.336 52.4372 425.631 50.3776C426.925 48.318 427.572 46.0634 427.572 43.6143C426.161 42.7236 424.424 42 422.366 41.4433C420.308 40.8866 418.131 40.6083 415.837 40.6083C411.721 40.6083 408.602 41.4154 406.486 43.0298C404.425 44.6441 403.396 46.7316 403.396 49.2921C403.396 51.63 404.338 53.5227 406.221 54.9702C408.104 56.4174 410.485 57.1409 413.368 57.1409Z" fill="#5F6368"/>
<path d="M445.151 19.4831H452.298V25.7455H452.651C453.884 23.6302 455.854 21.8489 458.562 20.4015C461.267 18.8986 464.15 18.1471 467.207 18.1471C472.617 18.1471 476.736 19.6501 479.557 22.656C482.44 25.6063 483.883 29.6422 483.883 34.7633V62.0676H476.383V35.8488C476.383 31.8965 475.383 29.0298 473.384 27.2484C471.384 25.4672 468.647 24.5765 465.178 24.5765C462.765 24.5765 460.591 25.2167 458.649 26.497C456.766 27.7774 455.297 29.475 454.236 31.5903C453.178 33.6499 452.651 35.8209 452.651 38.1034V62.0676H445.151V19.4831Z" fill="#5F6368"/>
<path d="M514.986 63.4036C510.632 63.4036 506.72 62.4292 503.252 60.4811C499.78 58.4769 497.075 55.7774 495.134 52.3815C493.193 48.9305 492.222 45.0615 492.222 40.7752C492.222 36.4891 493.193 32.6201 495.134 29.1688C497.075 25.7177 499.78 23.0179 503.252 21.0696C506.72 19.1212 510.632 18.1471 514.986 18.1471C519.866 18.1471 523.955 19.2326 527.249 21.4035C530.601 23.5188 532.982 26.3578 534.396 29.9205L527.602 32.5923C526.485 29.976 524.806 28 522.574 26.664C520.396 25.2723 517.75 24.5765 514.634 24.5765C511.984 24.5765 509.515 25.2723 507.222 26.664C504.928 28 503.074 29.8927 501.663 32.3418C500.31 34.7911 499.634 37.6022 499.634 40.7752C499.634 43.9481 500.31 46.7594 501.663 49.2085C503.074 51.6579 504.928 53.5785 507.222 54.9702C509.515 56.3062 511.984 56.974 514.634 56.974C517.808 56.974 520.545 56.2783 522.836 54.8866C525.13 53.4949 526.838 51.5189 527.954 48.958L534.658 51.63C533.131 55.1371 530.659 57.976 527.249 60.147C523.897 62.3181 519.808 63.4036 514.986 63.4036Z" fill="#5F6368"/>
<path d="M562.364 63.4036C558.07 63.4036 554.217 62.4292 550.806 60.4811C547.396 58.5327 544.72 55.8607 542.779 52.4651C540.896 49.0138 539.955 45.1451 539.955 40.8587C539.955 36.7396 540.838 32.9542 542.601 29.5029C544.426 26.0516 546.982 23.2962 550.276 21.2366C553.57 19.1769 557.394 18.1471 561.746 18.1471C566.159 18.1471 569.98 19.0934 573.215 20.986C576.451 22.823 578.923 25.3836 580.628 28.6678C582.391 31.9523 583.274 35.7098 583.274 39.9404C583.274 40.7752 583.184 41.499 583.009 42.1111H547.454C547.629 45.3398 548.454 48.0676 549.923 50.294C551.395 52.5208 553.246 54.1909 555.482 55.304C557.776 56.4174 560.157 56.974 562.629 56.974C568.394 56.974 572.834 54.4135 575.95 49.2921L582.304 52.2146C580.363 55.6659 577.716 58.3936 574.364 60.3975C571.07 62.4014 567.068 63.4036 562.364 63.4036ZM575.335 36.2665C575.215 34.4849 574.687 32.7037 573.746 30.9225C572.804 29.1412 571.303 27.638 569.246 26.4135C567.246 25.1888 564.716 24.5765 561.658 24.5765C558.128 24.5765 555.129 25.662 552.66 27.8331C550.247 29.9484 548.658 32.7594 547.895 36.2665H575.335Z" fill="#5F6368"/>
<path d="M650 41.4344H633.942V56.6311H627.766V41.4344H611.711V35.5895H627.766V20.3926H633.942V35.5895H650V41.4344Z" fill="#5F6368"/>
</svg>
